<svg width="13" height="12" viewBox="0 0 13 12" fill="none" xmlns="http://www.w3.org/2000/svg">
<path d="M3.21392 1.8158C3.21377 2.12641 3.09023 2.42424 2.87048 2.64377C2.65073 2.8633 2.35278 2.98654 2.04217 2.98638C1.73155 2.98623 1.43372 2.86269 1.2142 2.64294C0.994669 2.42319 0.871427 2.12524 0.871582 1.81463C0.871737 1.50401 0.995277 1.20618 1.21502 0.986656C1.43477 0.767129 1.73272 0.643888 2.04334 0.644043C2.35395 0.644198 2.65178 0.767738 2.87131 0.987485C3.09083 1.20723 3.21408 1.50518 3.21392 1.8158ZM3.24906 3.85363H0.906717V11.1852H3.24906V3.85363ZM6.94995 3.85363H4.61932V11.1852H6.92653V7.33786C6.92653 5.19462 9.71976 4.99552 9.71976 7.33786V11.1852H12.0328V6.54147C12.0328 2.92841 7.8986 3.06309 6.92653 4.83741L6.94995 3.85363Z" fill="black"/>
</svg>
