<svg width="13" height="11" viewBox="0 0 13 11" fill="none" xmlns="http://www.w3.org/2000/svg">
<path d="M12.4722 1.40164C12.0213 1.60659 11.5353 1.74128 11.0317 1.80569C11.547 1.49533 11.9452 1.00344 12.1326 0.412C11.6466 0.704792 11.1078 0.909747 10.5398 1.02686C10.0772 0.523261 9.42719 0.230469 8.68935 0.230469C7.31323 0.230469 6.18891 1.35479 6.18891 2.74263C6.18891 2.94173 6.21233 3.13497 6.25332 3.3165C4.16864 3.21109 2.31234 2.20974 1.07676 0.693081C0.860089 1.062 0.737116 1.49533 0.737116 1.95209C0.737116 2.82461 1.1763 3.59758 1.85558 4.03677C1.43982 4.03677 1.05333 3.91965 0.713693 3.74398V3.76154C0.713693 4.97956 1.58036 5.99848 2.7281 6.22685C2.35961 6.3277 1.97276 6.34173 1.59793 6.26785C1.75697 6.76704 2.06846 7.20385 2.48861 7.51686C2.90875 7.82986 3.41643 8.00334 3.94026 8.01289C3.0523 8.71585 1.95162 9.09582 0.819098 9.09036C0.619999 9.09036 0.420901 9.07865 0.221802 9.05523C1.33441 9.76964 2.65783 10.1854 4.07495 10.1854C8.68935 10.1854 11.2249 6.35568 11.2249 3.03542C11.2249 2.92416 11.2249 2.81875 11.2191 2.70749C11.711 2.35614 12.1326 1.9111 12.4722 1.40164Z" fill="black"/>
</svg>
